<?xml version="1.0" encoding="UTF-8" standalone="no"?>
<svg
   xmlns:dc="http://purl.org/dc/elements/1.1/"
   xmlns:cc="http://creativecommons.org/ns#"
   xmlns:rdf="http://www.w3.org/1999/02/22-rdf-syntax-ns#"
   xmlns:svg="http://www.w3.org/2000/svg"
   xmlns="http://www.w3.org/2000/svg"
   xmlns:sodipodi="http://sodipodi.sourceforge.net/DTD/sodipodi-0.dtd"
   xmlns:inkscape="http://www.inkscape.org/namespaces/inkscape"
   inkscape:version="1.0 (4035a4f, 2020-05-01)"
   sodipodi:docname="Logos_SE_24.svg"
   viewBox="0 0 572 84"
   height="84"
   width="572"
   xml:space="preserve"
   id="svg88"
   version="1.1"><metadata
     id="metadata94"><rdf:RDF><cc:Work
         rdf:about=""><dc:format>image/svg+xml</dc:format><dc:type
           rdf:resource="http://purl.org/dc/dcmitype/StillImage" /><dc:title></dc:title></cc:Work></rdf:RDF></metadata><defs
     id="defs92" /><sodipodi:namedview
     inkscape:current-layer="g96"
     inkscape:window-maximized="0"
     inkscape:window-y="49"
     inkscape:window-x="80"
     inkscape:cy="42"
     inkscape:cx="286"
     inkscape:zoom="1.9108392"
     showgrid="false"
     id="namedview90"
     inkscape:window-height="847"
     inkscape:window-width="1440"
     inkscape:pageshadow="2"
     inkscape:pageopacity="0"
     guidetolerance="10"
     gridtolerance="10"
     objecttolerance="10"
     borderopacity="1"
     bordercolor="#666666"
     pagecolor="#ffffff" /><g
     transform="matrix(1.3333333,0,0,-1.3333333,0,84)"
     inkscape:label="ink_ext_XXXXXX"
     inkscape:groupmode="layer"
     id="g96"><path
       d="m 144.526,9.06953 c 0.601,-3.32578 2.887,-4.54961 6.189,-4.54961 3.811,0 6.074,1.80117 6.074,5.03438 0,6.3277 -9.815,3.1867 -9.815,8.0598 0,1.8011 1.986,2.748 3.672,2.748 2.056,0 3.741,-0.8773 4.411,-3.025 l 1.455,0.7848 c -0.947,2.7484 -3.072,3.6722 -5.866,3.6722 -2.309,0 -5.242,-1.1777 -5.242,-4.18 0,-6.4203 9.815,-3.2793 9.815,-8.3141 0,-2.00859 -1.917,-3.34844 -4.504,-3.34844 -2.724,0 -4.48,1.15469 -4.619,3.92617 l -1.57,-0.8082"
       style="fill:#a7a5a6;fill-opacity:1;fill-rule:nonzero;stroke:none;stroke-width:0.1"
       id="path100" /><path
       d="m 159.644,13.157 c 0,-4.36442 2.24,-8.63708 7.113,-8.63708 4.873,0 7.113,4.27266 7.113,8.63708 0,4.3645 -2.24,8.6371 -7.113,8.6371 -4.873,0 -7.113,-4.2726 -7.113,-8.6371 z m 1.57,0 c 0,3.4176 1.64,7.2051 5.543,7.2051 3.902,0 5.542,-3.7875 5.542,-7.2051 0,-3.41833 -1.64,-7.20544 -5.542,-7.20544 -3.903,0 -5.543,3.78711 -5.543,7.20544"
       style="fill:#a7a5a6;fill-opacity:1;fill-rule:evenodd;stroke:none;stroke-width:0.1"
       id="path102" /><path
       d="m 177.304,4.93555 h 1.57 v 8.08285 h 8.176 v 1.432 h -8.176 v 5.4961 h 9.146 v 1.432 H 177.304 V 4.93555"
       style="fill:#a7a5a6;fill-opacity:1;fill-rule:nonzero;stroke:none;stroke-width:0.1"
       id="path104" /><path
       d="m 189.812,19.9465 h 5.15 V 4.93555 h 1.57 V 19.9465 h 5.15 v 1.432 h -11.87 v -1.432"
       style="fill:#a7a5a6;fill-opacity:1;fill-rule:nonzero;stroke:none;stroke-width:0.1"
       id="path106" /><path
       d="m 207.843,4.93555 h 1.223 l 3.811,13.25585 h 0.046 l 3.995,-13.25585 h 1.271 l 4.688,16.44295 H 221.26 L 217.634,7.79922 h -0.046 l -4.064,13.57928 h -1.155 L 208.42,7.70664 h -0.046 l -3.811,13.67186 h -1.639 l 4.919,-16.44295"
       style="fill:#a7a5a6;fill-opacity:1;fill-rule:nonzero;stroke:none;stroke-width:0.1"
       id="path108" /><path
       d="M 229.591,21.3785 222.894,4.93555 h 1.616 l 1.963,4.94218 h 7.229 l 1.847,-4.94218 h 1.686 l -6.374,16.44295 z m -2.587,-10.2074 3.141,8.1059 3.048,-8.1059 z"
       style="fill:#a7a5a6;fill-opacity:1;fill-rule:evenodd;stroke:none;stroke-width:0.1"
       id="path110" /><path
       d="m 241.106,19.9465 h 5.127 c 2.794,0 3.81,-1.2238 3.81,-3.1406 0,-1.4547 -0.738,-3.1407 -4.064,-3.1407 h -4.873 z m -1.57,-15.01095 h 1.57 v 7.29765 h 3.741 l 5.219,-7.29765 h 1.986 l -5.265,7.36675 c 2.979,0.2079 4.827,1.686 4.827,4.5036 0,2.3093 -1.409,4.5726 -4.803,4.5726 h -7.275 V 4.93555"
       style="fill:#a7a5a6;fill-opacity:1;fill-rule:evenodd;stroke:none;stroke-width:0.1"
       id="path112" /><path
       d="m 254.561,4.93555 h 11.247 v 1.43164 h -9.677 v 6.32771 h 8.291 v 1.4321 h -8.291 v 5.8195 h 9.192 v 1.432 H 254.561 V 4.93555"
       style="fill:#a7a5a6;fill-opacity:1;fill-rule:nonzero;stroke:none;stroke-width:0.1"
       id="path114" /><path
       d="m 276.508,4.93555 h 11.247 v 1.43164 h -9.676 v 6.32771 h 8.291 v 1.4321 h -8.291 v 5.8195 h 9.191 v 1.432 H 276.508 V 4.93555"
       style="fill:#a7a5a6;fill-opacity:1;fill-rule:nonzero;stroke:none;stroke-width:0.1"
       id="path116" /><path
       d="m 291.467,4.93555 h 1.57 V 18.7457 h 0.046 l 9.399,-13.81015 h 1.548 V 21.3785 h -1.571 V 7.56836 h -0.046 l -9.399,13.81014 h -1.547 V 4.93555"
       style="fill:#a7a5a6;fill-opacity:1;fill-rule:nonzero;stroke:none;stroke-width:0.1"
       id="path118" /><path
       d="m 321.436,17.6602 c -1.201,2.7714 -3.095,4.1339 -6.212,4.1339 -5.081,0 -7.413,-4.18 -7.413,-8.6371 0,-4.75739 2.309,-8.63708 7.112,-8.63708 2.032,0 4.134,0.78516 4.919,2.79414 h 0.047 V 4.93555 h 1.385 v 8.63715 h -7.483 V 12.141 h 6.098 v -0.9008 c 0,-2.42497 -1.363,-5.28864 -4.966,-5.28864 -3.902,0 -5.542,3.78711 -5.542,7.20544 0,3.4176 1.778,7.2051 5.958,7.2051 2.379,0 3.787,-1.0625 4.596,-3.5101 l 1.501,0.8082"
       style="fill:#a7a5a6;fill-opacity:1;fill-rule:nonzero;stroke:none;stroke-width:0.1"
       id="path120" /><path
       d="m 325.304,4.93555 h 1.571 V 21.3785 h -1.571 V 4.93555"
       style="fill:#a7a5a6;fill-opacity:1;fill-rule:nonzero;stroke:none;stroke-width:0.1"
       id="path122" /><path
       d="m 331.416,4.93555 h 1.571 V 18.7457 h 0.046 l 9.399,-13.81015 h 1.547 V 21.3785 h -1.57 V 7.56836 h -0.046 l -9.399,13.81014 h -1.548 V 4.93555"
       style="fill:#a7a5a6;fill-opacity:1;fill-rule:nonzero;stroke:none;stroke-width:0.1"
       id="path124" /><path
       d="m 348.245,4.93555 h 11.247 v 1.43164 h -9.677 v 6.32771 h 8.291 v 1.4321 h -8.291 v 5.8195 h 9.192 v 1.432 H 348.245 V 4.93555"
       style="fill:#a7a5a6;fill-opacity:1;fill-rule:nonzero;stroke:none;stroke-width:0.1"
       id="path126" /><path
       d="m 362.857,4.93555 h 11.247 v 1.43164 h -9.677 v 6.32771 h 8.291 v 1.4321 h -8.291 v 5.8195 h 9.192 v 1.432 H 362.857 V 4.93555"
       style="fill:#a7a5a6;fill-opacity:1;fill-rule:nonzero;stroke:none;stroke-width:0.1"
       id="path128" /><path
       d="m 379.039,19.9465 h 5.127 c 2.795,0 3.811,-1.2238 3.811,-3.1406 0,-1.4547 -0.739,-3.1407 -4.065,-3.1407 h -4.873 z m -1.57,-15.01095 h 1.57 v 7.29765 h 3.741 L 388,4.93555 h 1.986 l -5.266,7.36675 c 2.979,0.2079 4.827,1.686 4.827,4.5036 0,2.3093 -1.409,4.5726 -4.804,4.5726 h -7.274 V 4.93555"
       style="fill:#a7a5a6;fill-opacity:1;fill-rule:evenodd;stroke:none;stroke-width:0.1"
       id="path130" /><path
       d="m 392.771,4.93555 h 1.571 V 21.3785 h -1.571 V 4.93555"
       style="fill:#a7a5a6;fill-opacity:1;fill-rule:nonzero;stroke:none;stroke-width:0.1"
       id="path132" /><path
       d="m 398.883,4.93555 h 1.571 V 18.7457 h 0.046 l 9.399,-13.81015 h 1.547 V 21.3785 h -1.57 V 7.56836 h -0.046 l -9.399,13.81014 h -1.548 V 4.93555"
       style="fill:#a7a5a6;fill-opacity:1;fill-rule:nonzero;stroke:none;stroke-width:0.1"
       id="path134" /><path
       d="m 428.852,17.6602 c -1.2,2.7714 -3.094,4.1339 -6.212,4.1339 -5.08,0 -7.413,-4.18 -7.413,-8.6371 0,-4.75739 2.309,-8.63708 7.113,-8.63708 2.032,0 4.134,0.78516 4.919,2.79414 h 0.046 V 4.93555 h 1.386 v 8.63715 h -7.483 V 12.141 h 6.097 v -0.9008 c 0,-2.42497 -1.362,-5.28864 -4.965,-5.28864 -3.903,0 -5.543,3.78711 -5.543,7.20544 0,3.4176 1.778,7.2051 5.958,7.2051 2.38,0 3.788,-1.0625 4.597,-3.5101 l 1.5,0.8082"
       style="fill:#a7a5a6;fill-opacity:1;fill-rule:nonzero;stroke:none;stroke-width:0.1"
       id="path136" /><path
       d="M 127.458,60.4406 V 2.67852"
       style="fill:none;stroke:#d51f53;stroke-width:3.685;stroke-linecap:butt;stroke-linejoin:miter;stroke-miterlimit:3.86369;stroke-dasharray:none;stroke-opacity:1"
       id="path138" /><path
       d="M 59.9988,42.3918 V 12.5133 c 0,-4.31955 3.5278,-7.91916 7.8473,-7.91916 h 33.9079 c 4.319,0 7.775,3.59961 7.775,7.91916 v 7.343 c 0,0.5761 -0.504,1.1519 -1.08,1.1519 h -2.52 c -0.576,0 -1.152,-0.5758 -1.152,-1.1519 v -6.6231 c 0,-2.1598 -1.368,-3.95937 -3.455,-3.95937 H 68.566 c -2.1597,0 -3.8875,1.79957 -3.8875,3.95937 v 12.0945 c 0,2.1598 1.7278,3.9594 3.8875,3.9594 h 28.0953 l 11.7097,0.0031 c 0.576,0 1.152,0.5039 1.152,1.0797 v 2.45 c 0,0.5762 -0.576,1.152 -1.152,1.152 H 97.4574 L 68.566,33.9668 c -2.1597,0 -3.8875,1.7277 -3.8875,3.8875 v 9.7906 l -0.0062,2.2426 c 0,2.1598 1.7277,3.9594 3.8875,3.9594 h 32.7562 c 2.088,0 3.455,-1.7996 3.455,-3.9594 v -6.6234 c 0,-0.5758 0.576,-1.1516 1.152,-1.1516 h 2.52 c 0.576,0 1.08,0.5758 1.08,1.1516 v 7.3433 c 0,4.3196 -3.456,7.9188 -7.775,7.9188 H 67.8398 c -4.3195,0 -7.8468,-3.5992 -7.8468,-7.9188 l 0.0058,-8.2156"
       style="fill:#a7a5a6;fill-opacity:1;fill-rule:nonzero;stroke:none;stroke-width:0.1"
       id="path140" /><path
       d="M 41.582,9.18008 H 9.18203 c -2.15976,0 -3.88789,1.79962 -3.88789,3.95942 v 6.6246 c 0,0.5757 -0.5043,1.1515 -1.08008,1.1515 H 1.76641 c -0.57657,0 -1.152347,-0.5758 -1.152347,-1.1515 V 12.4199 C 0.614063,8.1 4.21406,4.5 8.53398,4.5 H 42.3742 c 4.3196,0 7.7762,3.52734 7.7762,7.8473 v 13.68 c 0,4.32 -3.4566,7.8489 -7.7762,7.8489 H 9.18203 c -2.15976,0 -3.88789,1.7281 -3.88789,3.8879 v 12.1675 c 0,2.0883 1.72813,3.8164 3.88789,3.8164 H 41.582 c 2.1598,0 3.8879,-1.7281 3.8879,-3.8164 v -6.6961 c 0,-0.5757 0.5758,-1.1515 1.1528,-1.1515 h 2.4476 c 0.5758,0 1.0801,0.5758 1.0801,1.1515 v 7.3442 c 0,4.3926 -3.4566,7.9203 -7.7762,7.9203 H 8.4625 C 4.1418,58.5 0.614063,54.9723 0.614063,50.5797 V 36.9723 c 0,-4.32 3.527737,-7.7762 7.848437,-7.7762 H 41.582 c 2.1598,0 3.8879,-1.8008 3.8879,-3.9606 v -12.096 c 0,-2.1598 -1.7281,-3.95942 -3.8879,-3.95942"
       style="fill:#a7a5a6;fill-opacity:1;fill-rule:nonzero;stroke:none;stroke-width:0.1"
       id="path142" /><path
       d="m 165.241,33.4023 h -17.855 c -0.145,0 -0.253,0.0719 -0.253,0.2165 v 1.0437 c 0,0.8641 0.396,1.4762 1.044,1.9082 l 19.26,11.1602 c 1.296,0.7195 2.124,1.8718 2.124,3.348 0,1.0078 0,3.0238 0,3.0238 0,2.3395 -1.8,3.8879 -3.959,3.8879 h -16.921 c -2.16,0 -3.96,-1.7277 -3.96,-3.8879 v -3.7441 c 0,-0.2879 0.288,-0.5398 0.577,-0.5398 h 1.259 c 0.289,0 0.576,0.2519 0.576,0.5398 v 3.348 c 0,1.0801 0.864,1.9442 1.908,1.9442 h 16.164 c 1.08,0 1.944,-0.7203 1.944,-1.9442 v -2.1597 c 0,-0.8641 -0.396,-1.5121 -1.044,-1.9082 L 146.846,38.4785 c -1.297,-0.7199 -2.125,-1.8719 -2.125,-3.348 v -3.5278 c 0,-0.2882 0.288,-0.5761 0.577,-0.5761 h 23.687 c 0.288,0 0.576,0.2879 0.576,0.5761 v 7.0559 c 0,0.2883 -0.288,0.5758 -0.576,0.5758 h -1.26 c -0.288,0 -0.576,-0.2875 -0.576,-0.5758 v -3.3481 c 0,-1.0796 -0.864,-1.9082 -1.908,-1.9082"
       style="fill:#d51f53;fill-opacity:1;fill-rule:nonzero;stroke:none;stroke-width:0.1"
       id="path144" /><path
       id="path68"
       style="fill:#d51f53;fill-opacity:1;fill-rule:nonzero;stroke:none;stroke-width:0.0999997"
       d="m 180.47366,40.15723 h 16.632 c 1.08,0 1.944,-0.863601 1.944,-1.943301 v -7.4524 c 0,-0.288199 0.288,-0.576099 0.576,-0.576099 h 1.224 c 0.288,0 0.54,0.2879 0.54,0.576099 V 56.60923 c 0,0.3601 -0.252,0.5402 -0.54,0.5402 h -1.224 c -0.288,0 -0.576,-0.1801 -0.576,-0.5402 v -12.168 c 0,-1.080101 -0.864,-1.944101 -1.944,-1.944101 h -16.236 c -1.044,0 -1.908,0.864 -1.908,1.944101 v 12.168 c 0,0.2883 -0.252,0.5402 -0.612,0.5402 h -1.188 c -0.288,0 -0.576,-0.2519 -0.576,-0.5402 v -12.5277 c 0,-2.1598 1.728,-3.9243 3.888,-3.9243" /></g></svg>
